<?xml version="1.0" encoding="UTF-8"?>
<svg width="258" height="258" viewBox="0 0 258 258" xmlns="http://www.w3.org/2000/svg">
    <g stroke="null" id="svg_8">
        <circle stroke="null" cx="129.000003" cy="129.000003" r="127" fill="#eee" id="svg_1"/>
        <g stroke="null" id="svg_16">
            <path stroke="null" d="m101.94803,122.026425l-35.359495,-26.523836c-1.446332,-1.081971 -2.298665,-2.786261 -2.298665,-4.591591l0,-22.963694c0,-1.524789 0.605473,-2.9826 1.68209,-4.058831l22.963694,-22.963699c2.242403,-2.242403 5.875645,-2.242403 8.118049,0s2.242403,5.875645 0,8.118049l-21.281986,21.281609l0,17.716108l33.060829,24.802704c2.539787,1.900629 3.055322,5.499805 1.149335,8.033847c-1.893739,2.534429 -5.491004,3.056468 -8.033852,1.149335z" fill="#53433f" id="svg_2"/>
            <path stroke="null" d="m148.018506,120.87709c-1.905982,-2.534042 -1.390452,-6.133217 1.149335,-8.033847l33.060447,-24.802704l0,-17.716108l-21.281604,-21.281609c-2.242403,-2.242403 -2.242403,-5.87564 0,-8.118049s5.875645,-2.242403 8.118049,0l22.963699,22.963699c1.076231,1.076231 1.681708,2.534042 1.681708,4.058831l0,22.963694c0,1.80533 -0.852339,3.50962 -2.29867,4.591591l-35.359495,26.523836c-2.540933,1.905987 -6.13858,1.386622 -8.03347,-1.149335z" fill="#3e322e" id="svg_3"/>
            <path stroke="null" d="m217.17868,158.899983l-21.281986,-21.281604l-34.413394,0c-3.173199,0 -5.740926,-2.567727 -5.740926,-5.740926s2.567727,-5.740926 5.740926,-5.740926l36.790517,0c1.524789,0 2.982605,0.605477 4.058836,1.682095l22.963694,22.963694c2.242403,2.242403 2.242403,5.875645 0,8.118049c-2.242021,2.242403 -5.875263,2.242403 -8.117667,-0.000382z" fill="#3e322e" id="svg_4"/>
            <path stroke="null" d="m32.70366,158.899983c-2.242403,-2.242408 -2.242403,-5.875645 0,-8.118049l22.963694,-22.963699c1.076231,-1.076231 2.534047,-1.681708 4.058836,-1.681708l36.790517,0c3.173204,0 5.740926,2.567727 5.740926,5.740926s-2.567722,5.740926 -5.740926,5.740926l-34.413394,0l-21.281604,21.281604c-2.242403,2.242785 -5.875645,2.242785 -8.118049,0z" fill="#53433f" id="svg_5"/>
            <path stroke="null" d="m146.828253,215.583566c-1.418392,-2.836778 -0.269061,-6.284779 2.567722,-7.70317l19.790495,-9.895056l0,-29.201016l-20.328613,-19.341942c-2.298665,-2.186523 -2.38822,-5.819383 -0.201697,-8.118049c2.186528,-2.287568 5.836226,-2.371383 8.118049,-0.201697l22.11136,21.040869c1.138238,1.081589 1.782748,2.58954 1.782748,4.159488l0,35.211004c0,2.175426 -1.227792,4.15987 -3.173199,5.135449l-22.963694,11.481847c-2.865487,1.42298 -6.291669,0.247243 -7.70317,-2.567727z" fill="#3e322e" id="svg_6"/>
            <path stroke="null" d="m103.468582,218.151293l-22.963694,-11.481847c-1.945407,-0.975578 -3.173199,-2.960023 -3.173199,-5.135449l0,-35.211004c0,-1.569948 0.644897,-3.0779 1.782748,-4.15987l22.11136,-21.040869c2.287568,-2.175426 5.93152,-2.091229 8.118049,0.201697c2.186528,2.298665 2.096968,5.93152 -0.201697,8.118049l-20.328613,19.342319l0,29.201021l19.790495,9.895056c2.836783,1.418392 3.986113,4.866387 2.567727,7.70317c-1.412652,2.817262 -4.840367,3.989179 -7.703175,2.567722l0,0.000005z" fill="#53433f" id="svg_7"/>
            <path stroke="null" d="m129.000003,85.170076c-22.159968,0 -40.186467,18.026499 -40.186467,40.186467s18.026499,40.186467 40.186467,40.186467s40.186467,-18.026499 40.186467,-40.186467s-18.026499,-40.186467 -40.186467,-40.186467z" fill="#725d57" id="svg_9"/>
            <path stroke="null" d="m169.18647,125.356543c0,22.159963 -18.026499,40.186467 -40.186467,40.186467l0,-80.372934c22.159968,0 40.186467,18.026499 40.186467,40.186467z" fill="#53433f" id="svg_10"/>
            <path stroke="null" d="m129.000003,154.061163c-12.629649,0 -22.963694,10.334045 -22.963694,22.963694s10.334045,22.963694 22.963694,22.963694s22.963694,-10.334045 22.963694,-22.963694s-10.333663,-22.963694 -22.963694,-22.963694z" fill="#53433f" id="svg_11"/>
            <path stroke="null" d="m151.963697,177.024857c0,12.629649 -10.334045,22.963694 -22.963694,22.963694l0,-45.927388c12.630031,0 22.963694,10.334045 22.963694,22.963694z" fill="#3e322e" id="svg_12"/>
        </g>
    </g>
</svg>