<?xml version="1.0" encoding="UTF-8"?>
<svg width="512px" height="512px" viewBox="0 0 512 512" version="1.1" xmlns="http://www.w3.org/2000/svg" xmlns:xlink="http://www.w3.org/1999/xlink">
    <g>
        <circle stroke="null" id="svg_1" fill="#eee" r="256" cy="256.000366" cx="256"/>
        <g id="svg_16">
            <path stroke="null" id="svg_2" fill="#53433f" d="m201.470045,241.943389l-71.275838,-53.465365c-2.915437,-2.180984 -4.633531,-5.616401 -4.633531,-9.25549l0,-46.289023c0,-3.073591 1.220487,-6.012173 3.390671,-8.181585l46.289023,-46.289023c4.520123,-4.520123 11.843818,-4.520123 16.363941,0s4.520123,11.843818 0,16.363941l-42.899124,42.898352l0,35.71121l66.642307,49.996002c5.119566,3.831188 6.158755,11.086221 2.316766,16.194215c-3.817301,5.108765 -11.068477,6.161069 -16.194215,2.316766z"/>
            <path stroke="null" id="svg_3" fill="#3e322e" d="m294.336514,239.626623c-3.841989,-5.107994 -2.8028,-12.363027 2.316766,-16.194215l66.641535,-49.996002l0,-35.71121l-42.898352,-42.898352c-4.520123,-4.520123 -4.520123,-11.843818 0,-16.363941s11.843818,-4.520123 16.363941,0l46.289023,46.289023c2.169412,2.169412 3.389899,5.107994 3.389899,8.181585l0,46.289023c0,3.639089 -1.718094,7.074506 -4.633531,9.25549l-71.275838,53.465365c-5.12188,3.841989 -12.373827,2.795086 -16.193443,-2.316766z"/>
            <path stroke="null" id="svg_4" fill="#3e322e" d="m433.745993,316.271188l-42.899124,-42.898352l-69.36873,0c-6.396372,0 -11.572256,-5.175884 -11.572256,-11.572256s5.175884,-11.572256 11.572256,-11.572256l74.160415,0c3.073591,0 6.012173,1.220487 8.181585,3.390671l46.289023,46.289023c4.520123,4.520123 4.520123,11.843818 0,16.363941c-4.519352,4.520123 -11.843047,4.520123 -16.36317,-0.000771z"/>
            <path stroke="null" id="svg_5" fill="#53433f" d="m61.89084,316.271188c-4.520123,-4.520123 -4.520123,-11.843818 0,-16.363941l46.289023,-46.289023c2.169412,-2.169412 5.107994,-3.389899 8.181585,-3.389899l74.160415,0c6.396372,0 11.572256,5.175884 11.572256,11.572256s-5.175884,11.572256 -11.572256,11.572256l-69.36873,0l-42.898352,42.898352c-4.520123,4.520895 -11.843818,4.520895 -16.363941,0z"/>
            <path stroke="null" id="svg_6" fill="#3e322e" d="m291.937256,430.531013c-2.859119,-5.718237 -0.542353,-12.668534 5.175884,-15.527653l39.892652,-19.94594l0,-58.861893l-40.977358,-38.988473c-4.633531,-4.407486 -4.814058,-11.73041 -0.406572,-16.363941c4.407486,-4.611158 11.764355,-4.780113 16.363941,-0.406572l44.570929,42.413089c2.294393,2.180213 3.593571,5.219859 3.593571,8.384485l0,70.976502c0,4.385113 -2.47492,8.385257 -6.396372,10.351769l-46.289023,23.144512c-5.776099,2.868376 -12.682421,0.498378 -15.527653,-5.175884z"/>
            <path stroke="null" id="svg_7" fill="#53433f" d="m204.535094,435.706897l-46.289023,-23.144512c-3.921452,-1.966512 -6.396372,-5.966655 -6.396372,-10.351769l0,-70.976502c0,-3.164626 1.29995,-6.204272 3.593571,-8.385257l44.570929,-42.413089c4.611158,-4.385113 11.956455,-4.215387 16.363941,0.406572c4.407486,4.633531 4.226959,11.956455 -0.406572,16.363941l-40.977358,38.989244l0,58.861893l39.892652,19.94594c5.718237,2.859119 8.035003,9.809415 5.175884,15.527653c-2.847546,5.678892 -9.756955,8.041175 -15.527653,5.175884z"/>
            <path stroke="null" id="svg_9" fill="#725d57" d="m256.000001,167.650278c-44.668907,0 -81.005791,36.336883 -81.005791,81.005791s36.336883,81.005791 81.005791,81.005791s81.005791,-36.336883 81.005791,-81.005791s-36.336883,-81.005791 -81.005791,-81.005791z"/>
            <path stroke="null" id="svg_10" fill="#53433f" d="m337.005792,248.656068c0,44.668907 -36.336883,81.005791 -81.005791,81.005791l0,-162.011581c44.668907,0 81.005791,36.336883 81.005791,81.005791z"/>
            <path stroke="null" id="svg_11" fill="#53433f" d="m256.000001,306.517347c-25.458191,0 -46.289023,20.830832 -46.289023,46.289023s20.830832,46.289023 46.289023,46.289023s46.289023,-20.830832 46.289023,-46.289023s-20.83006,-46.289023 -46.289023,-46.289023z"/>
            <path stroke="null" id="svg_12" fill="#3e322e" d="m302.289024,352.80637c0,25.458191 -20.830832,46.289023 -46.289023,46.289023l0,-92.578046c25.458963,0 46.289023,20.830832 46.289023,46.289023z"/>
        </g>
    </g>
</svg>